# xmcd
#
# Track frame offsets:
#	150
#	18630
#	43597
#
# Disc length: 850 seconds
#
# Revision: 1
# Processed by: cddbd v1.5.2PL0 Copyright (c) Steve Scherf et al.
# Submitted via: EasyCDDAExtractor 10.0.2.1
#
DISCID=1e035003
DTITLE=Celine Dion - Love can move mountains
DYEAR=1992
DGENRE=Blues
TTITLE0=Love can move mountains (Remix)
TTITLE1=Love can move mountains (Club Mix)
TTITLE2=Cry just a little
EXTD=Maxi-Cd-Single
EXTT0=
EXTT1=
EXTT2=
PLAYORDER=
